<svg width="100" height="40" version="1.1" viewBox="0 0 26.458 10.583" xmlns="http://www.w3.org/2000/svg">
  <defs>
    <filter id="filter3459" x="-.018688" y="-.067631" width="1.0507" height="1.2117" color-interpolation-filters="sRGB">
      <feFlood flood-color="rgb(0,0,0)" flood-opacity=".49804" result="flood"/>
      <feComposite in="flood" in2="SourceGraphic" operator="in" result="composite1"/>
      <feGaussianBlur in="composite1" result="blur" stdDeviation="0.7"/>
      <feOffset dx="1.2" dy="1.9" result="offset"/>
      <feComposite in="SourceGraphic" in2="offset" result="composite2"/>
    </filter>
  </defs>
  <g transform="matrix(.38921 0 0 .17355 -5.0581 -22.299)" fill="#ccc" stroke-width="2.2245" aria-label="H">
    <path d="m28.195 148.88-9.3411 4.9095q-2.1724 1.0862-2.911 1.0862-1.3469 0-1.9551-0.8255-0.65171-0.86894-0.65171-2.6503 0-2.042 0.86894-4.6923 0.86894-2.6937 1.9986-3.9537 1.1731-1.3034 5.4743-3.5627 4.3447-2.3027 10.427-4.6054 6.0826-2.3027 12.687-3.8234 6.604-1.5206 12.078-1.5206 3.8233 0 5.6481 1.2165t1.8248 6.4302q0 2.8241-1.9551 6.2998-1.9117 3.4323-4.6488 6.6909-2.6937 3.2585-10.036 11.557 3.9102-0.60826 5.735-0.78204 1.8248-0.17379 6.8212-0.7386 5.7785-8.3418 9.3411-13.295 3.5627-4.9964 6.0391-8.255 2.4765-3.302 2.9544-3.7799 0.86894-0.99929 1.4338-0.73861 0.60826 0.21724 0.60826 1.7813 0 1.7813-0.39102 2.911-0.34758 1.1296-1.1296 2.2592-0.78205 1.0862-0.8255 1.1731-1.1296 1.8682-3.2585 4.9095-2.1289 2.9978-4.1709 5.9523-2.042 2.9544-4.6488 6.995 4.8661 0.17379 9.6018 1.26l-7.8205 10.601q-3.2151-0.43447-8.5591-0.43447-1.3034 2.6068-2.042 4.084-0.69515 1.4772-1.2165 2.8241-0.47792 1.3034-0.47792 2.433 0 0.69516 0.39102 1.8682 0.43447 1.1296 0.43447 1.3034 0 0.86895-1.3034 1.8682-1.26 0.95584-2.9979 1.6944-1.6944 0.7386-2.6503 0.7386-1.6075 0-1.6075-2.433 0-5.0399 5.1702-14.033-6.8646 0.56481-15.771 2.042-2.5634 3.3889-4.6488 6.4302-2.0855 3.0413-3.4323 5.1268-1.3034 2.0855-1.9551 2.7806-0.60826 0.69516-1.3469 0.69516-1.26 0-2.1289-1.0862-0.39102-0.43447-0.52136-0.86894-0.08689-0.43447-0.08689-0.95584 0-0.52136 0-0.91239 0-0.52136 0.56481-1.5206 0.56481-0.99928 2.6937-3.9537 2.1289-2.9978 3.1282-4.5185-1.1296 0.13035-2.911 0.13035-2.2592 0-3.693-0.8255-1.3903-0.8255-1.3903-2.042 0-1.3903 0.7386-2.9544 0.7386-1.6075 1.9117-2.6503 1.1731-1.0862 2.3461-1.0862 0.78205 0 1.8682 0.47792l11.209-2.7806q9.3846-10.167 13.99-16.075 4.6054-5.9088 4.6054-7.6032 0-0.95583-0.52136-1.5641-0.52137-0.65171-1.4772-0.99929-0.91239-0.34757-2.1289-0.34757-1.4338 0-4.5619 0.78204-3.0847 0.78205-7.386 2.3027-4.3013 1.5206-10.731 4.2144-4.7792 1.9551-4.7792 2.4765 0 0.60826 0.65171 0.78205 0.65171 0.17378 1.651 0.26068 1.0427 0.0869 1.0427 0.30413 0 0.17379-0.52136 0.47792-0.47792 0.30413-1.3469 0.7386z"/>
  </g>
  <g transform="matrix(.24773 0 0 .27267 -5.0581 -22.299)" fill="#4d4d4d" filter="url(#filter3459)" stroke-width=".69047" aria-label="Hoffmann">
    <path d="m32.115 97.783-2.8994 1.5239q-0.67429 0.33714-0.90355 0.33714-0.41806 0-0.60686-0.25623-0.20229-0.26972-0.20229-0.82263 0-0.63383 0.26972-1.4565 0.26972-0.83612 0.62035-1.2272 0.36412-0.40457 1.6992-1.1058 1.3486-0.71475 3.2366-1.4295 1.888-0.71475 3.9379-1.1868 2.0498-0.472 3.749-0.472 1.1868 0 1.7532 0.3776t0.5664 1.9959q0 0.87658-0.60686 1.9554-0.59338 1.0654-1.443 2.0768-0.83612 1.0114-3.1152 3.5872 1.2137-0.18881 1.7801-0.24275 0.5664-0.0539 2.1173-0.22926 1.7936-2.5893 2.8994-4.1266 1.1058-1.5509 1.8745-2.5623 0.76869-1.0249 0.91703-1.1733 0.26972-0.31017 0.44503-0.22926 0.1888 0.06743 0.1888 0.55292 0 0.55292-0.12137 0.90355-0.10789 0.35063-0.35063 0.70126-0.24274 0.33714-0.25623 0.36412-0.35063 0.57989-1.0114 1.5239-0.6608 0.93052-1.2946 1.8476-0.63383 0.91703-1.443 2.1712 1.5104 0.0539 2.9804 0.39109l-2.4274 3.2905q-0.99795-0.13486-2.6567-0.13486-0.40457 0.80915-0.63383 1.2677-0.21577 0.45852-0.3776 0.87658-0.14834 0.40457-0.14834 0.7552 0 0.21577 0.12137 0.57989 0.13486 0.35063 0.13486 0.40457 0 0.26972-0.40457 0.57989-0.39109 0.29669-0.93052 0.52595-0.52595 0.22926-0.82263 0.22926-0.49897 0-0.49897-0.75521 0-1.5644 1.6048-4.3559-2.1308 0.17532-4.8953 0.63383-0.79566 1.0519-1.443 1.9959-0.64732 0.94401-1.0654 1.5913-0.40457 0.64732-0.60686 0.86309-0.1888 0.21578-0.41806 0.21578-0.39109 0-0.6608-0.33715-0.12137-0.13486-0.16183-0.26971-0.02697-0.13486-0.02697-0.29669t0-0.2832q0-0.16183 0.17532-0.47201 0.17532-0.31017 0.83612-1.2272 0.6608-0.93052 0.97098-1.4025-0.35063 0.0404-0.90355 0.0404-0.70126 0-1.1463-0.25623-0.43154-0.25623-0.43154-0.63383 0-0.43154 0.22926-0.91703 0.22926-0.49898 0.59338-0.82264 0.36412-0.33714 0.72823-0.33714 0.24274 0 0.57989 0.14834l3.4793-0.86309q2.9129-3.1557 4.3424-4.9897 1.4295-1.8341 1.4295-2.36 0-0.29669-0.16183-0.48549-0.16183-0.20229-0.45852-0.31017-0.2832-0.10789-0.6608-0.10789-0.44503 0-1.416 0.24274-0.95749 0.24274-2.2926 0.71475-1.3351 0.472-3.331 1.3081-1.4834 0.60686-1.4834 0.76869 0 0.1888 0.20229 0.24274 0.20229 0.05394 0.51246 0.08092 0.32366 0.02697 0.32366 0.0944 0 0.05394-0.16183 0.14834-0.14834 0.0944-0.41806 0.22926z"/>
    <path d="m55.755 105.35v0.90355q-0.89006 0.80915-1.4295 1.0789-0.53943 0.26972-1.5509 0.21578-1.7532 2.0768-3.0882 2.0768-0.7552 0-1.3756-0.49898-0.62035-0.49897-0.99795-1.3621-0.36412-0.86309-0.36412-1.9285 0-0.86309 0.5664-1.915 0.57989-1.0519 1.4834-1.9554 0.91703-0.91704 1.9554-1.47 1.0384-0.56641 1.9285-0.56641 0.63383 0 0.99795 0.20229 0.36412 0.1888 0.36412 0.53943 0 0.26972-0.31017 0.62035 0.51246 0.10788 0.70126 0.36411 0.1888 0.24275 0.1888 0.90355 0 0.64732-0.31017 1.6318-0.29669 0.98447-0.82263 1.8476l0.24274 0.24274h0.20229q0.22926 0 0.44503-0.10789 0.22926-0.12137 0.40457-0.24274 0.17532-0.13486 0.76869-0.57989zm-2.7781-3.5468q-1.1193 0.67429-1.915 1.2272-0.79566 0.53943-1.3486 1.1058-0.55292 0.55292-0.74172 1.1193-0.33714 1.5104-0.33714 1.6318 0 0.89006 1.2407 0.89006 0.57989 0 1.942-0.99794-0.22926-0.63384-0.22926-1.2137 0-0.8496 0.35063-1.7262 0.35063-0.89006 1.0384-2.0364z"/>
    <path d="m63.24 105.38v0.93052q-0.80915 0.80915-1.2272 1.1733-0.41806 0.36411-1.1463 0.74171 0 1.2272-0.12137 2.0903-0.12137 0.86309-0.53943 1.8071-0.41806 0.95749-1.2946 2.0903-0.86309 1.1193-1.6992 1.7127-0.83612 0.60686-1.3081 0.60686-0.52595 0-0.97098-0.86309-0.44503-0.86309-0.44503-2.1442 0-1.2272 0.41806-2.5893 0.41806-1.3621 1.2946-3.5198-0.6608-0.86309-0.6608-1.7127 0-0.68777 0.35063-1.0519 0.35063-0.36412 0.99795-0.6608 0.472-0.74172 0.89006-1.2542 0.43155-0.52595 1.1598-1.389 1.4025-3.4524 3.2905-6.7429 0.52594-0.91703 0.7552-1.2272 0.22926-0.32366 0.48549-0.32366 0.22926 0 0.40457 0.33714 0.17532 0.33714 0.17532 0.87658 0 0.6608-0.14834 1.2137-0.13486 0.55292-0.40457 1.1193-0.25623 0.55292-0.72823 1.3351-0.45852 0.78218-0.5664 0.97098-0.67429 1.1867-1.5239 2.6297-0.8496 1.443-1.3486 2.2791-0.48549 0.83612-0.70126 1.2542 0.72823 0.63383 1.1463 1.0924 0.43154 0.45852 0.74172 1.0924 0.45852-0.17532 0.83612-0.41806 0.3776-0.24275 0.89006-0.66081 0.51246-0.43154 0.99795-0.79566zm-4.0323 3.6142-0.02697-0.2832q-0.3776 0.0405-0.60686 0.027-0.22926-0.027-0.53943-0.12137-0.29669-0.0944-0.472-0.17531-0.16183-0.0809-0.36412-0.16183-1.0249 2.5084-1.0249 4.1671 0 0.82263 0.24274 1.4025 0.25623 0.57989 0.59337 0.57989 0.35063 0 0.87658-0.62035 0.53943-0.62034 0.93052-1.8341 0.39109-1.2137 0.39109-2.9804z"/>
    <path d="m70.724 105.38v0.93052q-0.80915 0.80915-1.2272 1.1733-0.41806 0.36411-1.1463 0.74171 0 1.2272-0.12137 2.0903t-0.53943 1.8071q-0.41806 0.95749-1.2946 2.0903-0.86309 1.1193-1.6992 1.7127-0.83612 0.60686-1.3081 0.60686-0.52595 0-0.97098-0.86309t-0.44503-2.1442q0-1.2272 0.41806-2.5893 0.41806-1.3621 1.2946-3.5198-0.6608-0.86309-0.6608-1.7127 0-0.68777 0.35063-1.0519 0.35063-0.36412 0.99795-0.6608 0.472-0.74172 0.89006-1.2542 0.43154-0.52595 1.1598-1.389 1.4025-3.4524 3.2905-6.7429 0.52595-0.91703 0.7552-1.2272 0.22926-0.32366 0.48549-0.32366 0.22926 0 0.40457 0.33714 0.17532 0.33714 0.17532 0.87658 0 0.6608-0.14834 1.2137-0.13486 0.55292-0.40457 1.1193-0.25623 0.55292-0.72823 1.3351-0.45852 0.78218-0.5664 0.97098-0.67429 1.1867-1.5239 2.6297t-1.3486 2.2791q-0.48549 0.83612-0.70126 1.2542 0.72823 0.63383 1.1463 1.0924 0.43154 0.45852 0.74172 1.0924 0.45852-0.17532 0.83612-0.41806 0.3776-0.24275 0.89006-0.66081 0.51246-0.43154 0.99795-0.79566zm-4.0323 3.6142-0.02697-0.2832q-0.3776 0.0405-0.60686 0.027-0.22926-0.027-0.53943-0.12137-0.29669-0.0944-0.472-0.17531-0.16183-0.0809-0.36412-0.16183-1.0249 2.5084-1.0249 4.1671 0 0.82263 0.24274 1.4025 0.25623 0.57989 0.59338 0.57989 0.35063 0 0.87658-0.62035 0.53943-0.62034 0.93052-1.8341 0.39109-1.2137 0.39109-2.9804z"/>
    <path d="m76.86 107.22q1.861-1.6453 3.1961-2.859 1.3351-1.2272 2.0903-1.9285 0.76869-0.70126 1.3486-1.1868t0.74172-0.48549q0.31017-0.0135 0.59338 0.64732 0.2832 0.64732 0.2832 1.0384 0 0.25623-0.86309 1.2137-0.8496 0.944-1.2812 1.5104-0.41806 0.5664-0.41806 1.1868 0 0.36411 0.24274 0.59337 0.24274 0.21577 0.57989 0.21577 0.39109 0 0.93052-0.40457 0.55292-0.40457 1.7262-1.443v0.95749q-1.1733 1.1058-2.1308 1.915-0.95749 0.79566-1.6722 1.2002-0.70126 0.39109-1.1733 0.39109-0.41806 0-0.70126-0.31018-0.2832-0.32366-0.2832-0.79566 0-0.45852 0.16183-0.93052 0.16183-0.472 0.49898-1.1193 0.33714-0.64732 0.89006-1.5509 0.55292-0.91704 1.0114-1.6722-1.3756 1.1193-2.4409 2.1577-1.0654 1.0384-1.7397 1.8206-0.67429 0.76869-1.0654 1.2137-0.7552 0.83612-1.4025 0.83612-0.70126 0-0.70126-0.99795 0-0.40458 0.52595-1.443 0.52595-1.0519 1.4969-2.6702 0.08091-0.10789 0.08091-0.33714 0-0.26972-0.26972-0.26972-0.29669 0-0.86309 0.5664-0.55292 0.55292-2.1577 2.333-0.44503 0.49897-1.0114 1.3081-0.55292 0.79566-0.79566 1.0654-0.24274 0.26972-0.48549 0.26972-0.48549 0-0.90355-0.86309-0.41806-0.86309-0.41806-2.0094 0-0.83612 0.26972-1.443 0.2832-0.60686 0.86309-1.5104 0.90355-1.3081 1.47-1.861 0.57989-0.5664 1.2137-0.5664 0.39109 0 0.6608 0.16183 0.26972 0.14834 0.26972 0.41806 0 0.2832-0.49897 0.93052-0.48549 0.64731-1.2407 1.3351-0.40457 0.39109-0.76869 0.97098-0.36412 0.5664-0.36412 0.82263 0 0.36411 0.2832 0.36411 0.22926 0 1.1598-0.944 0.93052-0.94401 2.0364-2.0498 1.1193-1.1193 2.0633-1.8476 0.95749-0.74172 1.6183-0.74172 0.40457 0 0.6608 0.31017 0.26972 0.29669 0.26972 0.74172 0 0.29669-0.40457 1.0789-0.40457 0.76869-1.1867 1.915-0.76869 1.1328-1.9959 2.7511z"/>
    <path d="m87.514 102.96q2.0498-1.861 3.9783-2.7646 1.9285-0.90355 2.9804-0.90355 0.2832 0 0.52595 0.24274 0.24274 0.22926 0.3776 0.53944 0.14834 0.31017 0.14834 0.45851 0 0.24275-0.1888 0.36412-0.1888 0.10789-0.6608 0.26972 0.0944 0.21577 0.24274 0.55291 0.14834 0.33715 0.22926 0.55292 0.08092 0.20229 0.08092 0.36412 0 0.32366-0.6608 1.2137-0.64732 0.87657-0.91703 1.2946-0.25623 0.41806-0.25623 1.0249 0 0.99795 0.91703 0.99795 0.94401 0 2.9534-1.7666v0.82264q-3.4119 3.7895-4.8819 3.7895-0.52595 0-0.7552-0.35063-0.21577-0.33714-0.21577-1.0114 0-1.0654 0.76869-3.0882-1.9689 2.1847-2.9264 3.1152-0.95749 0.91704-1.5778 0.91704-0.29669 0-0.74172-0.51246-0.44503-0.51246-0.79566-1.3216-0.33714-0.82264-0.33714-1.6992 0-0.63383 0.12137-1.0519 0.12137-0.43155 0.472-0.87658 0.35063-0.44503 1.1193-1.1733zm6.4597-1.4834q-3.5063 1.6048-5.0032 2.7241-1.4834 1.1193-1.4834 2.3061 0 0.43154 0.14834 0.71475 0.14834 0.26971 0.40457 0.26971 0.14834 0 0.52595-0.1888 1.416-0.83612 2.5893-2.1712 1.1733-1.3486 2.8185-3.6546z"/>
    <path d="m106.23 102.93q-2.3735 2.6432-2.3735 3.6816 0 0.57988 0.472 0.57988 0.39109 0 1.0114-0.40457 0.63383-0.41806 1.9689-1.47v0.93052q-1.915 1.888-2.9399 2.7241t-1.6722 0.83612q-1.1058 0-1.1058-1.4565 0-0.43154 0.13485-0.8496 0.13486-0.41806 0.36412-0.86309 0.24275-0.45852 0.72823-1.2946 0.48549-0.8496 1.1193-1.915-0.76869 0.39109-1.9285 1.5509-0.75521 0.72824-1.2812 1.389-0.52595 0.64732-1.1328 1.4565-0.59338 0.79566-0.87658 1.0789-0.26972 0.26972-0.55292 0.26972-0.43154 0-0.79566-0.90355-0.36412-0.90355-0.36412-2.1038 0-0.74171 0.16183-1.1598 0.17532-0.41806 0.67429-1.1868 0.93052-1.4295 1.6048-2.0903 0.67429-0.67429 1.2946-0.67429 0.43155 0 0.68778 0.14834 0.26971 0.14835 0.26971 0.45852 0 0.13486-0.0809 0.2832-0.0809 0.14835-0.1888 0.26972-0.0944 0.12137-0.41806 0.472-2.1308 2.36-2.1308 3.0613 0 0.39109 0.25623 0.39109 0.16183 0 0.62035-0.51246 0.472-0.52594 1.2002-1.3621 0.74172-0.84961 1.7397-1.7666 1.0114-0.91703 2.2926-1.7666 0.71474-0.49897 1.1868-0.49897 0.21577 0 0.41806 0.59337 0.21577 0.59338 0.21577 1.2002 0 0.29668-0.57989 0.90354z"/>
    <path d="m116.32 102.93q-2.3735 2.6432-2.3735 3.6816 0 0.57988 0.472 0.57988 0.39109 0 1.0114-0.40457 0.63383-0.41806 1.9689-1.47v0.93052q-1.915 1.888-2.9399 2.7241t-1.6722 0.83612q-1.1058 0-1.1058-1.4565 0-0.43154 0.13486-0.8496 0.13485-0.41806 0.36411-0.86309 0.24275-0.45852 0.72824-1.2946 0.48548-0.8496 1.1193-1.915-0.76869 0.39109-1.9285 1.5509-0.75521 0.72824-1.2812 1.389-0.52595 0.64732-1.1328 1.4565-0.59337 0.79566-0.87657 1.0789-0.26972 0.26972-0.55292 0.26972-0.43155 0-0.79566-0.90355-0.36412-0.90355-0.36412-2.1038 0-0.74171 0.16183-1.1598 0.17531-0.41806 0.67429-1.1868 0.93052-1.4295 1.6048-2.0903 0.67429-0.67429 1.2946-0.67429 0.43155 0 0.68778 0.14834 0.26972 0.14835 0.26972 0.45852 0 0.13486-0.0809 0.2832-0.0809 0.14835-0.1888 0.26972-0.0944 0.12137-0.41806 0.472-2.1308 2.36-2.1308 3.0613 0 0.39109 0.25623 0.39109 0.16183 0 0.62035-0.51246 0.472-0.52594 1.2002-1.3621 0.74172-0.84961 1.7397-1.7666 1.0114-0.91703 2.2926-1.7666 0.71475-0.49897 1.1868-0.49897 0.21577 0 0.41806 0.59337 0.21577 0.59338 0.21577 1.2002 0 0.29668-0.57989 0.90354z"/>
  </g>
  <g transform="matrix(.26194 0 0 .25788 -5.0581 -22.299)" fill="#f00" stroke-width=".26458" aria-label="Família">
    <path d="m76.178 94.565h4.4235q0.29456 0 0.40308 0.08268t0.10852 0.33073q0 0.31522-0.19637 0.65112-0.97668-0.39791-2.6872-0.39791h-0.44958q-0.03617 0.58394-0.03617 2.4753h2.5528q0.06718 0.20154 0.06718 0.42374 0 0.14469-0.05168 0.19637-0.05168 0.04651-0.20154 0.04651h-2.3668q0.0052 2.1187 0.03617 2.713h0.83199q0.06201 0.15502 0.06201 0.29972 0 0.12919-0.05168 0.18087-0.05168 0.0517-0.18087 0.0517h-2.4288q-0.06718-0.1757-0.06718-0.32556 0-0.10852 0.05168-0.15503 0.05684-0.0517 0.18087-0.0517h0.3824q0.03617-0.7183 0.03617-3.6845 0-1.5865-0.03617-2.3048h-0.54777q-0.06718-0.1757-0.06718-0.32556 0-0.10852 0.05168-0.15503 0.05684-0.05168 0.18087-0.05168z"/>
    <path d="m84.792 101.21q-0.43408 0.25322-0.894 0.38757-0.45475 0.12919-0.894 0.12919-0.69763 0-1.0387-0.32556-0.34106-0.33072-0.34106-0.97668 0-0.79064 0.56327-1.2092 0.56327-0.41858 1.7415-0.41858h0.75964q-0.03101-0.9095-0.26355-1.2661-0.22738-0.35657-0.81132-0.35657-0.31006 0-0.59428 0.06201-0.14986 0.29972-0.18087 0.32039-0.02584 0.02067-0.29456 0.09302-0.26872 0.06718-0.37724-0.02584-0.10335-0.09819-0.21704-0.3514-0.10852-0.25321-0.10852-0.40824 0-0.10335 0.08268-0.1602 0.08785-0.05684 0.69763-0.13953 0.60978-0.08268 1.2971-0.08268 0.91467 0 1.3488 0.31522 0.43925 0.31522 0.43925 1.1575v1.5916q0 1.1059 0.09302 1.3488 0.09819 0.24287 0.32039 0.19637 0.06201 0.11368 0.06201 0.2222 0 0.1757-0.22221 0.26872-0.21704 0.093-0.58911 0.093-0.18087 0-0.27905-0.0465-0.09302-0.0413-0.29972-0.41858zm-0.10335-1.7467q-0.44442-0.07751-0.91984-0.07751-0.58911 0-0.82682 0.19637-0.23254 0.19637-0.23254 0.62011 0 0.41341 0.2067 0.62529 0.21187 0.2067 0.65112 0.2067 0.34106 0 0.63562-0.13436 0.29456-0.13435 0.38757-0.37207 0.09819-0.24287 0.09819-0.75963z"/>
    <path d="m91.117 98.312q0 2.1652 0.03617 2.775h0.54777q0.06718 0.13435 0.06718 0.28938 0 0.13953-0.05684 0.19121-0.05684 0.0517-0.22221 0.0517h-1.8242q-0.06201-0.16536-0.06201-0.31006 0-0.11368 0.05168-0.16536 0.05684-0.0568 0.1912-0.0568h0.1757q0.03617-0.75965 0.03617-2.1239 0-1.0645-0.22738-1.4159-0.22221-0.3514-0.72347-0.3514-0.32556 0-0.64079 0.24288-0.31006 0.24288-0.31006 0.87333v1.0904q0 0.91467 0.03617 1.6846h0.41858q0.06201 0.13435 0.06201 0.28938 0 0.13953-0.05684 0.19121-0.05684 0.0517-0.21704 0.0517h-1.8758q-0.06718-0.16536-0.06718-0.31006 0-0.11368 0.05684-0.16536 0.05684-0.0568 0.18604-0.0568h0.35657q0.04134-0.82166 0.04134-2.0154 0-1.5244-0.11886-1.7673-0.11886-0.24288-0.45475-0.24288-0.06718-0.14469-0.06718-0.29972 0-0.13953 0.10852-0.1757 0.10852-0.04134 1.3694-0.08268 0.03101 0.23771 0 0.60978 0.5116-0.34106 0.98185-0.50126 0.47542-0.1602 0.8785-0.1602 0.5116 0 0.78548 0.18087 0.27388 0.1757 0.37207 0.44958 0.46509-0.31522 0.93017-0.47025 0.47025-0.1602 0.86299-0.1602 0.63562 0 0.98185 0.32039 0.3514 0.31522 0.3514 1.2092 0 2.7802 0.07751 2.9455 0.08268 0.16536 0.37207 0.1602 0.05684 0.14986 0.05684 0.29972 0 0.13952-0.08785 0.18603-0.08785 0.0465-0.32556 0.0465-0.7183 0-0.8785-0.0155-0.1602-0.0207-0.21704-0.10852-0.05684-0.093-0.05684-0.30489v-2.2272q0-1.0645-0.22738-1.4159-0.22221-0.3514-0.72347-0.3514-0.32556 0-0.64079 0.24288-0.31006 0.24288-0.31006 0.87333z"/>
    <path d="m97.22 101.09h0.54777q0.06718 0.13435 0.06718 0.28938 0 0.13953-0.05684 0.19121-0.05684 0.0517-0.22221 0.0517h-2.0309q-0.06201-0.16536-0.06201-0.31006 0-0.11368 0.05168-0.16536 0.05684-0.0568 0.1912-0.0568h0.3824q0.03617-0.7183 0.03617-1.6846 0-1.1782-0.02067-1.571-0.0155-0.39791-0.08268-0.54777-0.06718-0.14986-0.1912-0.18604-0.11886-0.03617-0.29972-0.03617-0.06718-0.10852-0.06718-0.25321 0-0.21187 0.20154-0.25838 0.20154-0.04651 0.78031-0.04651 0.40824 0 0.55294 0.04134 0.14469 0.03617 0.16536 0.14469 0.02067 0.10335 0.02067 0.36173v2.3513q0 0.96635 0.03617 1.6846zm-1.2764-5.4467 1.1059-1.6071q0.69246 0.21187 0.69246 0.59944 0 0.48576-1.3953 1.3694z"/>
    <path d="m99.236 98.658q0-2.1859-0.02067-2.7802-0.02067-0.59944-0.07752-0.78031-0.05168-0.18087-0.1757-0.23254-0.12402-0.05168-0.32556-0.05168-0.06718-0.1602-0.06718-0.31522 0-0.1602 0.12919-0.20154 0.13436-0.04134 0.85266-0.04134 0.40824 0 0.55294 0.04134 0.1447 0.03617 0.16537 0.14469 0.0207 0.10335 0.0207 0.36173v4.3253q5e-3 1.2402 0.0413 1.9585h0.5736q0.062 0.13435 0.062 0.28938 0 0.13953-0.0569 0.19121-0.0568 0.0517-0.21704 0.0517h-2.0567q-0.06718-0.16536-0.06718-0.31006 0-0.11368 0.05684-0.16536 0.05684-0.0568 0.18604-0.0568h0.3824q0.04134-0.7183 0.04134-2.4288z"/>
    <path d="m102.75 95.619q-0.33589 0-0.49609-0.13953-0.16019-0.13953-0.16019-0.40308 5e-3 -0.28422 0.2067-0.45475 0.20154-0.17053 0.56844-0.17053 0.36173 0 0.51676 0.14986 0.15503 0.14469 0.15503 0.39274 0 0.27905-0.1912 0.45475-0.1912 0.17053-0.59945 0.17053zm0.73381 5.4674h0.54777q0.0672 0.13435 0.0672 0.28938 0 0.13953-0.0568 0.19121-0.0568 0.0517-0.22221 0.0517h-2.0309q-0.062-0.16536-0.062-0.31006 0-0.11368 0.0517-0.16536 0.0568-0.0568 0.1912-0.0568h0.38241q0.0362-0.7183 0.0362-1.6846 0-1.1782-0.0207-1.571-0.0155-0.39791-0.0827-0.54777-0.0672-0.14986-0.1912-0.18604-0.11886-0.03617-0.29973-0.03617-0.0672-0.10852-0.0672-0.25321 0-0.21187 0.20154-0.25838 0.20154-0.04651 0.78031-0.04651 0.40825 0 0.55294 0.04134 0.14469 0.03617 0.16536 0.14469 0.0207 0.10335 0.0207 0.36173v2.3513q0 0.96635 0.0362 1.6846z"/>
    <path d="m108.05 101.21q-0.43409 0.25322-0.894 0.38757-0.45476 0.12919-0.894 0.12919-0.69763 0-1.0387-0.32556-0.34106-0.33072-0.34106-0.97668 0-0.79064 0.56327-1.2092 0.56327-0.41858 1.7415-0.41858h0.75964q-0.031-0.9095-0.26355-1.2661-0.22737-0.35657-0.81131-0.35657-0.31006 0-0.59428 0.06201-0.14986 0.29972-0.18087 0.32039-0.0258 0.02067-0.29455 0.09302-0.26872 0.06718-0.37724-0.02584-0.10335-0.09819-0.21704-0.3514-0.10852-0.25321-0.10852-0.40824 0-0.10335 0.0827-0.1602 0.0879-0.05684 0.69763-0.13953 0.60978-0.08268 1.2971-0.08268 0.91467 0 1.3488 0.31522 0.43925 0.31522 0.43925 1.1575v1.5916q0 1.1059 0.093 1.3488 0.0982 0.24287 0.3204 0.19637 0.062 0.11368 0.062 0.2222 0 0.1757-0.22221 0.26872-0.21704 0.093-0.58911 0.093-0.18087 0-0.27905-0.0465-0.093-0.0413-0.29972-0.41858zm-0.10336-1.7467q-0.44441-0.07751-0.91983-0.07751-0.58911 0-0.82683 0.19637-0.23254 0.19637-0.23254 0.62011 0 0.41341 0.20671 0.62529 0.21187 0.2067 0.65112 0.2067 0.34106 0 0.63562-0.13436 0.29455-0.13435 0.38757-0.37207 0.0982-0.24287 0.0982-0.75963z"/>
  </g>
</svg>
