<svg width="80mm" height="100mm" version="1.1" viewBox="0 0 80 100" xmlns="http://www.w3.org/2000/svg">
  <rect y="-9.992e-16" width="80" height="100" fill="#f95" stroke-width="4.8951"/>
  <rect y="-9.992e-16" width="80" height="100" fill="none"/>
  <path transform="scale(.26458)" d="m0 0v41.406l20.457 20.457-20.457 20.461v52.131l20.457 20.457-20.457 20.457v44.215l17.488 17.488-17.488 17.488v48.172l18.479 18.479-18.479 18.479v38.264h12.857l-12.199-12.199 44.543-44.543-42.564-42.562 41.574-41.576-39.588-39.596 42.563-42.564-46.527-46.52 46.527-46.529-46.527-46.52 15.344-15.344h-16.002zm59.758 0-15.342 15.344 46.52 46.52-46.52 46.529 46.52 46.52-42.564 42.564 39.598 39.596-41.574 41.576 42.562 42.562-44.541 44.543 12.199 12.199h26.723l-12.199-12.199 44.549-44.543-42.572-42.562 41.576-41.576-39.59-39.596 42.564-42.564-46.527-46.52 46.527-46.529-46.527-46.52 15.344-15.344h-26.725zm70.844 0-15.342 15.344 46.52 46.52-46.52 46.529 46.52 46.52-42.562 42.564 39.596 39.596-41.574 41.576 42.562 42.562-44.541 44.543 12.199 12.199h26.723l-12.199-12.199 44.549-44.543-42.57-42.562 41.574-41.576-39.59-39.596 42.564-42.564-46.527-46.52 46.527-46.529-46.527-46.52 15.344-15.344h-26.725zm70.844 0-15.342 15.344 46.52 46.52-46.52 46.529 46.52 46.52-42.562 42.564 39.596 39.596-41.574 41.576 42.564 42.562-44.543 44.543 12.197 12.199h26.725l-12.199-12.199 44.541-44.543-42.562-42.562 41.574-41.576-39.596-39.596 42.57-42.564-46.527-46.52 46.527-46.529-46.527-46.52 15.344-15.344h-26.725zm70.844 0-15.342 15.344 45.414 45.412v-26.725l-18.691-18.688 15.344-15.344h-26.725zm30.072 62.971-45.414 45.422 45.414 45.412v-26.725l-18.691-18.688 18.691-18.691v-26.73zm0 93.049-41.457 41.457 39.596 39.596-41.574 41.576 42.564 42.562-44.543 44.543 12.197 12.199h26.725l-12.199-12.199 18.691-18.691v-51.701l-16.713-16.713 16.713-16.713v-49.73l-14.727-14.729 14.727-14.727v-26.73z" color="#000000" fill="#ececec" stroke-width="3.7795" style="-inkscape-stroke:none"/>
  <path transform="scale(.26458)" d="m0 0v25.406l18.457 18.457-18.457 18.461v26.727l45.186-45.188-43.871-43.863h-1.3145zm45.072 0 43.863 43.863-46.52 46.529 46.52 46.52-42.564 42.564 39.598 39.596-41.574 41.576 42.562 42.562-44.541 44.543 30.199 30.199h26.723l-30.199-30.199 44.549-44.543-42.572-42.562 41.576-41.576-39.59-39.596 42.564-42.564-46.527-46.52 46.527-46.529-43.871-43.863h-26.723zm70.844 0 43.863 43.863-46.52 46.529 46.52 46.52-42.562 42.564 39.596 39.596-41.574 41.576 42.562 42.562-44.541 44.543 30.199 30.199h26.723l-30.199-30.199 44.549-44.543-42.57-42.562 41.574-41.576-39.59-39.596 42.564-42.564-46.527-46.52 46.527-46.529-43.871-43.863h-26.723zm70.844 0 43.863 43.863-46.52 46.529 46.52 46.52-42.562 42.564 39.596 39.596-41.574 41.576 42.564 42.562-44.543 44.543 30.195 30.199h26.727l-30.199-30.199 44.541-44.543-42.562-42.562 41.574-41.576-39.596-39.596 42.57-42.564-46.527-46.52 46.527-46.529-43.871-43.863h-26.723zm70.844 0 43.865 43.863-46.521 46.529 46.521 46.52-42.564 42.564 39.596 39.596-41.574 41.576 42.564 42.562-44.543 44.543 30.195 30.199h17.219v-9.5078l-20.691-20.691 20.691-20.691v-47.701l-18.713-18.713 18.713-18.713v-45.729l-16.727-16.73 16.727-16.727v-51.67l-20.691-20.688 20.691-20.691v-51.67l-18.035-18.031h-26.723zm-257.6 91.734v26.721l18.457 18.457-18.457 18.457v48.215l15.488 15.488-15.488 15.488v52.172l16.479 16.479-16.479 16.479v26.723l43.201-43.201-42.564-42.562 41.574-41.576-39.588-39.596 42.563-42.564-45.186-45.178zm0 257.36v26.727l2.1309 2.1308h26.727l-28.857-28.857z" color="#000000" fill="#f00" stroke-width="3.7795" style="-inkscape-stroke:none"/>
</svg>
